<?xml version="1.0" standalone="no"?>
<!DOCTYPE svg PUBLIC "-//W3C//DTD SVG 20010904//EN"
 "http://www.w3.org/TR/2001/REC-SVG-20010904/DTD/svg10.dtd">
<svg version="1.0" xmlns="http://www.w3.org/2000/svg"
 width="1024.000000pt" height="1024.000000pt" viewBox="0 0 1024.000000 1024.000000"
 preserveAspectRatio="xMidYMid meet">

<g transform="translate(0.000000,1024.000000) scale(0.100000,-0.100000)"
fill="#000000" stroke="none">
<path d="M5005 8845 c-100 -22 -157 -50 -408 -199 -133 -79 -352 -207 -487
-286 -135 -79 -326 -191 -425 -249 -99 -57 -261 -153 -360 -211 -99 -59 -286
-167 -415 -241 -209 -119 -244 -143 -316 -214 -80 -79 -106 -121 -150 -240
-18 -47 -19 -106 -22 -1144 -3 -1202 -5 -1143 58 -1279 38 -81 134 -182 220
-231 36 -21 169 -95 295 -166 127 -70 271 -151 320 -180 50 -28 128 -72 175
-97 47 -24 135 -73 195 -108 179 -102 298 -171 510 -290 110 -63 229 -132 265
-155 36 -23 101 -61 144 -85 44 -24 111 -63 150 -87 214 -132 421 -148 618
-49 137 69 321 172 404 226 43 28 107 65 143 82 36 17 100 52 141 78 41 25
116 68 165 94 50 27 101 56 115 66 14 9 131 77 260 150 129 73 267 152 305
175 39 23 169 95 290 160 260 139 349 189 392 222 47 34 140 155 168 216 57
124 55 81 55 1228 0 1021 -1 1058 -20 1135 -47 187 -143 314 -306 404 -122 67
-600 346 -634 370 -14 9 -72 43 -130 75 -58 32 -166 94 -240 139 -74 46 -182
109 -240 141 -150 84 -651 380 -732 432 -182 118 -339 154 -503 118z m235
-271 c25 -10 95 -48 155 -84 249 -151 523 -312 630 -372 175 -98 504 -289 770
-448 154 -92 358 -214 453 -270 95 -56 189 -118 209 -139 44 -45 79 -120 93
-203 7 -43 10 -378 8 -1058 l-3 -995 -24 -57 c-13 -32 -39 -76 -58 -98 -33
-38 -158 -117 -338 -215 -38 -21 -101 -57 -140 -80 -179 -107 -354 -210 -510
-300 -93 -54 -230 -133 -303 -177 -73 -43 -134 -78 -136 -78 -3 0 -82 -46
-178 -102 -95 -56 -202 -118 -238 -138 -36 -20 -99 -59 -140 -86 -108 -73
-251 -144 -309 -153 -28 -4 -75 -4 -103 0 -62 9 -218 88 -376 188 -59 37 -195
119 -302 181 -107 62 -235 136 -285 165 -49 29 -157 91 -240 138 -82 46 -249
140 -370 209 -121 68 -323 183 -448 254 -126 71 -246 144 -267 162 -45 38 -96
134 -109 207 -6 30 -8 449 -5 1040 5 937 6 994 24 1056 22 74 60 131 116 176
22 16 122 79 224 138 102 59 235 137 295 173 61 36 175 103 255 150 224 131
299 175 380 224 155 94 417 246 460 268 25 12 83 46 130 75 160 99 417 245
456 260 50 19 162 14 224 -11z"/>
<path d="M5065 8463 c-11 -2 -80 -39 -152 -81 l-133 -77 0 -532 c0 -505 1
-532 18 -537 50 -16 87 -113 71 -185 -32 -145 -221 -165 -289 -31 -39 76 -12
200 48 221 27 9 30 14 36 77 9 101 7 912 -3 912 -4 0 -47 -24 -94 -52 l-86
-53 -4 -390 c-2 -214 -7 -398 -12 -408 -6 -14 -17 -17 -49 -15 l-41 3 -6 373
c-4 205 -9 375 -11 377 -2 2 -41 -21 -87 -51 -46 -30 -87 -54 -90 -54 -9 0
-11 -402 -3 -503 6 -68 5 -91 -5 -99 -8 -6 -55 -15 -106 -19 -50 -5 -93 -13
-95 -18 -7 -22 -63 -91 -84 -105 -13 -8 -39 -17 -58 -21 -45 -8 -113 26 -154
77 -74 93 0 238 121 238 52 0 75 -10 123 -54 32 -30 40 -32 88 -28 l52 4 0
222 c0 123 -3 225 -6 228 -3 4 -33 -13 -67 -36 -34 -24 -107 -69 -162 -101
-55 -32 -131 -77 -170 -100 -38 -23 -119 -70 -180 -105 -60 -35 -164 -96 -230
-135 -66 -40 -164 -96 -217 -125 -54 -30 -98 -56 -98 -59 0 -3 96 -5 212 -4
156 2 230 7 274 19 34 8 73 14 85 12 22 -3 24 -9 27 -64 4 -90 4 -90 -186 -76
-173 13 -358 15 -441 5 -45 -5 -56 -11 -71 -35 -24 -39 -36 -148 -18 -159 15
-10 589 -12 730 -2 90 5 97 8 102 29 10 37 65 64 134 64 51 0 65 -4 93 -27 90
-76 89 -217 -3 -264 -77 -40 -178 -16 -216 51 l-17 30 -283 0 -284 0 2 -802
c1 -442 4 -897 7 -1011 l6 -208 108 -64 c59 -35 129 -75 157 -89 l50 -25 6 31
c3 17 6 111 6 209 l0 179 -27 13 c-15 6 -35 19 -44 27 -8 8 -37 30 -63 48
l-47 32 1 523 c1 287 -2 595 -6 684 -8 179 0 218 42 229 37 9 51 -1 58 -43 11
-67 24 -676 21 -1008 -2 -177 0 -327 4 -334 6 -9 17 -7 50 9 48 26 75 22 116
-16 28 -26 28 -26 21 -122 -3 -54 -9 -197 -13 -319 l-6 -221 74 -37 c41 -21
89 -48 107 -62 23 -17 33 -21 36 -11 15 46 17 102 17 358 l0 285 -34 30 c-46
40 -57 64 -57 122 0 57 23 99 75 139 49 37 126 44 172 15 67 -42 92 -145 53
-221 -18 -35 -66 -80 -87 -80 -4 0 -8 -167 -8 -371 l0 -370 56 -23 c30 -12 71
-34 91 -49 19 -15 38 -27 41 -27 4 0 7 105 7 233 l0 232 -35 28 c-31 25 -35
33 -35 74 0 79 67 154 123 138 106 -32 151 -150 82 -215 l-25 -23 0 -231 c0
-317 -5 -296 95 -351 46 -25 86 -45 89 -45 3 0 5 236 4 524 l-1 525 -24 6
c-13 3 -37 24 -54 48 -28 38 -30 47 -27 104 3 49 9 68 28 89 39 41 78 57 130
52 142 -14 202 -192 93 -278 l-28 -22 -3 -526 c-2 -290 0 -545 3 -567 5 -37
10 -42 70 -74 36 -18 150 -85 253 -148 249 -153 269 -163 318 -163 49 0 101
26 266 130 141 89 347 210 359 210 5 0 9 222 9 523 0 287 3 538 6 559 6 34 4
38 -33 62 -72 48 -91 126 -50 206 31 61 67 85 126 84 63 -1 114 -32 140 -88
37 -75 21 -161 -38 -207 l-26 -21 -3 -519 c-2 -285 0 -519 5 -519 4 0 35 18
67 40 33 22 70 43 82 46 l23 6 3 266 3 267 -27 28 c-67 69 -6 221 87 221 45 0
101 -52 116 -108 14 -53 -2 -108 -36 -126 l-25 -13 0 -229 0 -228 43 21 c23
12 89 52 147 89 58 37 141 86 185 110 44 24 112 63 150 88 39 25 112 65 164
89 52 24 115 61 140 82 25 20 109 73 186 116 197 110 201 113 230 147 l27 31
-4 1051 -3 1051 -23 36 c-12 20 -47 55 -76 78 -44 32 -55 37 -60 25 -3 -9 -6
-490 -6 -1069 l0 -1053 -35 -6 c-20 -4 -179 -6 -355 -5 l-320 1 -40 -35 c-89
-81 -216 -54 -270 59 -18 36 -21 56 -17 96 11 92 63 138 157 138 84 0 144 -48
165 -133 5 -20 12 -26 25 -22 9 3 141 6 292 7 l276 2 5 120 c9 179 8 1959 -1
1972 -4 6 -34 25 -67 44 -86 48 -555 329 -586 351 -14 10 -94 54 -178 98 -138
73 -235 130 -389 228 -30 19 -56 32 -58 30 -3 -2 -9 -82 -13 -177 -8 -151 -12
-175 -29 -192 -22 -23 -55 -18 -68 10 -4 9 -9 110 -12 224 -3 175 -6 208 -20
213 -8 3 -45 26 -82 50 -37 25 -73 45 -79 45 -13 0 -15 -457 -4 -784 6 -188 7
-198 27 -206 78 -30 114 -166 63 -241 -63 -94 -216 -88 -268 11 -38 70 -15
193 42 234 l21 15 -7 530 -8 531 -56 31 c-162 92 -202 110 -248 114 -26 2 -57
1 -68 -2z m121 -214 c19 -11 46 -41 60 -65 22 -37 26 -54 22 -93 -5 -55 -38
-108 -74 -121 l-24 -10 0 -188 0 -188 29 -11 c88 -33 94 -194 9 -254 -18 -13
-51 -23 -88 -26 -57 -6 -60 -5 -94 29 -33 33 -56 89 -56 136 0 36 39 108 65
120 l25 12 0 182 0 183 -30 17 c-35 20 -70 87 -70 133 0 43 32 107 69 138 41
34 107 37 157 6z m1172 -584 c69 -31 146 -105 182 -175 75 -146 -5 -362 -162
-439 -83 -41 -166 -50 -239 -26 -192 63 -295 269 -228 452 28 76 122 171 200
202 74 29 162 24 247 -14z m557 -389 c39 -16 48 -40 43 -107 -3 -40 -7 -46
-41 -63 -51 -24 -100 -15 -144 29 -27 27 -33 41 -33 74 0 58 26 81 90 81 28 0
66 -6 85 -14z m-1690 -200 c10 -14 16 -46 17 -77 0 -49 -3 -56 -36 -86 -69
-63 -170 -34 -197 57 -10 32 -9 44 7 77 13 25 26 38 39 38 17 0 20 -6 17 -41
-4 -49 16 -74 58 -74 40 0 64 39 55 91 -5 32 -4 39 9 39 8 0 23 -11 31 -24z
m1749 -96 c16 -68 17 -143 14 -832 -2 -416 -6 -759 -9 -762 -10 -10 -64 16
-81 39 -15 20 -17 86 -21 741 -5 777 -1 878 34 907 21 17 22 17 34 0 7 -10 20
-52 29 -93z m-300 -3 c79 -92 94 -130 61 -157 -8 -7 -15 -18 -15 -26 0 -24
-65 -82 -104 -92 -52 -15 -91 -5 -126 30 -65 65 -62 182 6 254 33 35 36 36 91
32 50 -4 60 -9 87 -41z m-3051 -402 c71 -34 97 -118 63 -198 -33 -76 -134
-102 -196 -51 -60 51 -74 109 -43 185 28 71 104 98 176 64z m3095 -14 c34 -24
62 -77 62 -115 0 -36 -34 -99 -66 -125 -58 -46 -150 -17 -189 60 -32 61 -8
144 56 187 41 28 92 26 137 -7z m-1535 9 c117 -17 242 -96 299 -190 8 -14 26
-56 39 -95 20 -57 24 -90 24 -180 0 -103 -2 -113 -29 -163 -24 -43 -48 -66
-123 -118 -139 -97 -139 -97 -357 -102 -151 -3 -190 -2 -197 9 -10 16 -12 613
-3 747 l7 91 106 4 c58 1 120 4 136 5 17 1 60 -3 98 -8z m1090 -79 c-18 -47
-45 -115 -60 -151 -48 -120 -176 -444 -204 -519 -15 -40 -29 -75 -31 -76 -5
-5 -49 -8 -94 -7 l-41 2 -30 78 c-17 42 -36 95 -43 117 -7 22 -46 120 -86 217
-87 210 -164 404 -164 412 0 3 35 6 78 6 l79 0 45 -107 c25 -60 67 -166 93
-238 68 -190 94 -254 95 -227 0 12 11 44 24 70 13 26 33 79 46 117 13 39 32
88 43 110 11 22 32 76 47 121 15 44 39 98 52 120 l25 39 80 1 79 2 -33 -87z
m-1904 69 c126 -24 239 -108 293 -218 31 -62 33 -73 33 -172 0 -180 -46 -279
-170 -362 -101 -68 -148 -78 -353 -78 l-172 0 0 420 0 420 159 0 c87 0 181 -4
210 -10z m-667 -429 c33 -35 38 -47 38 -87 0 -111 -107 -180 -196 -125 -69 42
-84 153 -28 213 38 40 61 49 109 43 31 -3 49 -13 77 -44z m2974 33 c61 -29 90
-88 80 -159 -8 -52 -44 -91 -96 -105 -45 -12 -82 -1 -122 37 -58 55 -59 128
-5 190 48 55 85 64 143 37z m-3032 -398 c70 -29 100 -105 71 -181 -34 -89
-114 -121 -185 -72 -54 36 -75 72 -74 127 1 104 93 166 188 126z m3073 -12
c38 -24 63 -74 63 -124 0 -149 -191 -199 -254 -66 -29 62 -17 124 36 173 47
45 104 51 155 17z m-1517 -493 c0 -70 13 -121 30 -121 9 0 43 -14 74 -30 l56
-30 24 23 c12 12 27 31 33 42 11 18 13 18 49 -10 56 -41 104 -87 104 -100 0
-6 -20 -31 -45 -55 -25 -24 -45 -49 -45 -54 0 -6 11 -41 25 -77 l26 -67 59 5
60 6 0 -76 c0 -108 1 -107 -85 -107 l-73 0 -7 -62 -7 -62 50 -46 51 -45 -59
-64 -58 -64 -51 52 c-27 28 -57 51 -67 51 -9 0 -32 -11 -49 -24 -18 -14 -44
-28 -59 -32 -24 -6 -26 -10 -26 -59 l0 -52 -87 -6 c-47 -3 -90 -4 -95 -1 -4 3
-8 29 -8 58 0 53 -12 76 -39 76 -8 0 -35 10 -59 22 l-45 21 -31 -34 c-17 -19
-39 -45 -49 -59 l-17 -25 -76 76 -76 76 44 31 c66 45 68 50 55 106 -12 54 -30
66 -102 66 -52 0 -55 6 -55 102 l0 70 53 -4 52 -4 38 76 c20 42 37 78 37 81 0
3 -22 22 -50 43 -27 21 -50 45 -50 53 0 9 29 45 65 81 l66 65 48 -47 c47 -46
47 -47 66 -26 10 11 42 28 72 37 l53 17 0 68 0 68 90 0 90 0 0 -29z m1310
-456 c45 -23 63 -67 55 -128 -18 -129 -158 -160 -215 -47 -32 64 -25 105 28
163 30 32 84 37 132 12z m438 -12 c30 -19 24 -44 -13 -55 -29 -9 -234 -1 -261
9 -19 7 0 40 28 49 77 25 205 23 246 -3z m-1784 -747 c18 -8 45 -29 60 -48 49
-65 47 -140 -7 -203 -28 -32 -40 -38 -82 -42 -98 -8 -155 51 -155 159 0 49 4
62 28 88 15 17 45 37 67 45 50 18 49 18 89 1z"/>
<path d="M5079 8160 c-29 -17 -33 -60 -8 -86 28 -30 63 -31 83 -2 21 30 20 54
-4 78 -22 22 -46 25 -71 10z"/>
<path d="M5080 7469 c-36 -66 54 -110 94 -47 7 11 6 24 -2 42 -15 34 -75 37
-92 5z"/>
<path d="M6118 7547 c-24 -18 -58 -54 -75 -81 -60 -88 -41 -194 48 -269 111
-96 265 -61 333 75 44 88 34 148 -36 224 -53 58 -107 83 -175 84 -43 0 -59 -5
-95 -33z m171 -116 c33 -31 41 -74 21 -112 -12 -21 -60 -49 -86 -49 -27 0 -84
65 -84 95 0 35 59 95 93 95 14 0 39 -13 56 -29z"/>
<path d="M6553 6898 c-31 -40 -12 -98 32 -98 39 0 62 69 33 98 -16 16 -53 15
-65 0z"/>
<path d="M3552 6493 c-21 -8 -34 -51 -22 -74 14 -26 66 -26 80 0 14 28 13 38
-10 61 -21 21 -26 22 -48 13z"/>
<path d="M6626 6485 c-37 -37 -26 -85 18 -85 44 0 62 52 30 84 -19 20 -29 20
-48 1z"/>
<path d="M4991 6152 l1 -281 51 5 c164 16 229 37 278 91 57 62 64 81 63 183 0
109 -18 155 -79 208 -61 54 -91 64 -207 70 l-107 5 0 -281z"/>
<path d="M4160 6151 l0 -281 78 6 c115 9 168 29 223 85 111 114 114 274 9 380
-55 55 -109 75 -227 84 l-83 7 0 -281z"/>
<path d="M3604 6092 c-19 -12 -35 -52 -29 -71 8 -26 45 -33 72 -15 27 17 29
41 7 72 -16 23 -31 27 -50 14z"/>
<path d="M6596 6071 c-25 -27 -17 -64 15 -75 41 -14 59 -2 59 38 0 25 -6 38
-19 46 -27 14 -35 13 -55 -9z"/>
<path d="M3568 5679 c-21 -12 -24 -59 -6 -77 27 -27 88 -3 88 34 0 17 -36 54
-52 54 -7 0 -21 -5 -30 -11z"/>
<path d="M6614 5656 c-10 -43 -1 -61 30 -61 35 0 51 23 42 58 -5 22 -12 27
-36 27 -23 0 -31 -5 -36 -24z"/>
<path d="M5028 4986 c-56 -20 -85 -42 -118 -87 -46 -65 -63 -119 -58 -193 3
-55 10 -73 41 -118 47 -69 82 -94 154 -113 51 -13 63 -13 108 0 141 40 225
206 182 356 -20 68 -62 112 -131 138 -74 28 -134 33 -178 17z"/>
<path d="M6427 4713 c-13 -13 -7 -51 9 -57 21 -8 54 20 54 46 0 13 -7 18 -28
18 -16 0 -32 -3 -35 -7z"/>
<path d="M5092 3947 c-19 -22 -25 -66 -12 -82 18 -21 57 -19 70 4 16 31 12 59
-12 75 -27 19 -33 20 -46 3z"/>
<path d="M3788 7409 c-32 -18 -41 -48 -23 -75 21 -33 67 -33 89 1 22 33 20 51
-6 69 -26 18 -36 19 -60 5z"/>
<path d="M4677 7122 c-10 -10 -17 -26 -17 -35 0 -19 46 -57 70 -57 39 0 66 70
38 98 -18 18 -73 14 -91 -6z"/>
<path d="M5487 7123 c-15 -18 -21 -36 -18 -60 0 -7 15 -20 32 -28 28 -15 33
-15 55 0 31 20 34 79 5 95 -29 15 -56 12 -74 -7z"/>
<path d="M3750 6891 c-18 -34 -12 -69 15 -87 23 -15 27 -15 50 0 32 21 35 80
6 96 -30 16 -59 12 -71 -9z"/>
<path d="M2807 6803 c-12 -11 -8 -1764 3 -1805 11 -38 109 -138 136 -138 12 0
14 134 14 938 0 515 -3 954 -6 975 l-7 37 -67 0 c-37 0 -70 -3 -73 -7z"/>
<path d="M4360 5291 c-23 -44 -5 -81 40 -81 14 0 31 5 38 12 7 7 12 24 12 38
0 14 -5 31 -12 38 -19 19 -66 15 -78 -7z"/>
<path d="M5778 5299 c-25 -14 -32 -58 -12 -80 19 -21 64 -25 82 -7 39 39 -22
114 -70 87z"/>
<path d="M3803 5270 c-12 -5 -27 -18 -33 -30 -24 -46 45 -94 90 -63 28 19 26
67 -2 87 -25 18 -25 18 -55 6z"/>
<path d="M6350 5231 c-24 -46 1 -101 47 -101 45 0 71 71 37 104 -22 23 -71 20
-84 -3z"/>
<path d="M4074 4806 c-8 -32 1 -46 32 -46 46 0 42 61 -4 68 -16 2 -23 -3 -28
-22z"/>
<path d="M6087 4814 c-14 -15 -7 -53 12 -59 31 -10 52 5 49 34 -2 19 -9 27
-28 29 -14 2 -29 0 -33 -4z"/>
<path d="M6290 3069 c0 -32 4 -59 9 -59 5 0 12 -82 16 -182 6 -179 1 -253 -27
-395 -6 -35 -9 -65 -6 -69 3 -3 89 -1 190 4 260 14 333 41 423 157 162 209 72
509 -175 583 -19 6 -124 13 -232 15 l-198 5 0 -59z m373 -113 c101 -30 146
-93 147 -204 0 -143 -83 -216 -263 -229 l-77 -6 2 227 3 226 71 0 c39 0 91 -6
117 -14z"/>
<path d="M2280 3067 c0 -29 5 -58 10 -63 13 -13 7 -489 -7 -577 -5 -32 -7 -59
-4 -60 3 -1 131 -1 283 1 l278 3 -1 85 c-2 82 -2 85 -23 79 -11 -4 -99 -9
-193 -12 l-173 -6 0 75 0 75 68 6 c37 4 104 7 148 7 65 0 83 3 88 16 8 20 8
62 0 92 -6 22 -9 22 -155 22 l-149 0 0 75 0 75 138 -1 c75 0 158 -4 185 -8
l47 -8 0 42 c0 23 3 63 6 89 l7 46 -277 0 -276 0 0 -53z"/>
<path d="M5078 2978 l-3 -73 -32 3 -33 4 0 -67 0 -67 34 6 35 7 -2 -153 c-2
-171 2 -184 68 -248 48 -47 100 -48 171 -5 56 35 62 50 39 100 -17 34 -47 47
-60 25 -9 -14 -48 -13 -63 2 -8 8 -12 54 -12 139 0 143 -3 139 88 139 l42 0 0
60 0 61 -51 -7 c-63 -8 -69 -1 -69 84 l0 62 -75 0 -74 0 -3 -72z"/>
<path d="M3175 2902 c-17 -10 -44 -35 -62 -55 -18 -20 -34 -37 -36 -37 -3 0
-1 19 4 43 4 23 8 45 9 50 0 4 -40 7 -90 7 l-90 0 0 -65 c0 -58 2 -65 20 -65
19 0 20 -7 20 -142 0 -115 -3 -145 -16 -159 -9 -10 -16 -38 -17 -66 l-2 -48
98 1 c54 1 100 4 103 7 3 3 1 22 -5 44 -6 21 -14 79 -17 128 -8 111 6 150 67
195 37 26 49 30 80 25 32 -6 40 -3 53 17 8 13 18 43 22 67 6 36 4 46 -11 58
-27 19 -95 16 -130 -5z"/>
<path d="M3644 2898 c-16 -13 -47 -41 -67 -63 l-38 -40 3 55 2 55 -93 3 -94 3
6 -57 c3 -31 11 -62 16 -67 15 -15 14 -175 -1 -309 -7 -59 -10 -109 -7 -111 2
-2 44 -1 92 1 l89 4 -6 42 c-3 22 -7 96 -8 163 -1 138 0 141 74 179 39 20 51
22 66 13 42 -26 47 -48 50 -226 l4 -173 90 0 c82 0 89 2 83 18 -4 9 -10 98
-15 197 -4 99 -13 194 -19 210 -15 36 -66 91 -103 111 -40 21 -90 17 -124 -8z"/>
<path d="M4138 2906 c-90 -24 -162 -89 -188 -170 -15 -47 -15 -155 0 -201 17
-51 138 -160 194 -174 65 -16 92 -14 187 14 46 13 95 25 108 25 17 0 22 4 17
16 -3 9 -6 26 -6 39 0 33 -24 53 -73 60 -34 5 -51 2 -78 -14 -66 -40 -160 -16
-194 50 l-16 29 113 2 c62 2 143 1 180 0 84 -4 92 7 82 111 -11 122 -57 179
-170 213 -57 17 -93 17 -156 0z m148 -143 c35 -22 50 -53 33 -64 -8 -5 -62 -9
-121 -9 -99 0 -108 2 -108 19 0 23 44 68 73 74 35 8 96 -2 123 -20z"/>
<path d="M4673 2900 c-161 -64 -162 -245 -1 -304 24 -9 69 -25 101 -37 42 -15
57 -25 57 -39 0 -46 -76 -52 -162 -14 l-59 27 -23 -22 c-35 -33 -63 -88 -50
-101 6 -6 55 -22 110 -35 84 -22 106 -24 147 -15 128 27 203 114 178 207 -15
57 -54 88 -156 124 -102 36 -115 44 -115 69 0 22 19 30 71 30 45 0 78 -14 97
-42 13 -18 16 -16 48 29 19 26 34 60 34 74 0 22 -7 28 -52 43 -83 28 -164 30
-225 6z"/>
<path d="M5607 2906 c-174 -48 -251 -228 -172 -402 46 -104 186 -166 300 -135
103 27 206 138 221 236 25 173 -178 348 -349 301z m143 -162 c64 -58 67 -144
6 -209 -28 -29 -40 -35 -76 -35 -37 0 -48 5 -81 40 -63 66 -62 160 2 214 46
39 98 36 149 -10z"/>
<path d="M7185 2888 c-138 -71 -197 -230 -132 -356 15 -29 43 -70 62 -91 67
-73 197 -107 290 -76 87 30 145 57 145 69 0 6 -21 33 -47 60 -42 44 -48 47
-67 36 -82 -52 -133 -54 -202 -7 -27 17 -50 40 -52 50 -3 16 11 17 182 17
l186 0 0 23 c0 126 -67 242 -162 281 -54 23 -154 20 -203 -6z m172 -123 c12
-8 30 -29 38 -45 l16 -30 -116 0 c-123 0 -130 3 -99 49 35 49 108 61 161 26z"/>
<path d="M7550 2878 c0 -20 13 -51 36 -84 35 -50 126 -259 164 -374 l18 -55
79 3 c43 2 79 5 81 7 2 2 24 52 49 112 114 272 131 310 157 347 44 65 37 71
-86 74 l-106 3 -4 -78 c-4 -81 -63 -287 -79 -278 -4 3 -11 20 -14 38 -4 17
-23 72 -41 121 -19 50 -32 96 -29 104 3 7 2 31 -1 53 l-7 39 -108 0 -109 0 0
-32z"/>
<path d="M3583 2015 c-17 -7 -37 -23 -43 -35 -21 -39 -9 -63 50 -92 30 -15 55
-32 54 -38 -2 -24 -5 -28 -20 -34 -8 -3 -22 1 -30 9 -9 8 -26 15 -40 15 -36 0
-32 -36 7 -55 49 -26 89 -22 116 9 51 60 39 100 -42 131 -45 17 -58 40 -29 52
8 3 20 1 27 -6 15 -15 57 -14 57 2 0 18 -12 32 -37 46 -27 14 -30 14 -70 -4z"/>
<path d="M5622 2018 c-6 -6 -12 -16 -12 -21 0 -16 -43 -107 -50 -107 -5 0 -18
25 -31 56 -23 55 -50 81 -70 69 -12 -8 -8 -23 39 -143 52 -135 58 -135 127 3
31 63 55 122 53 132 -4 22 -38 29 -56 11z"/>
<path d="M5987 2024 c-4 -4 -7 -63 -7 -131 l0 -123 74 0 c58 0 75 3 80 16 14
38 7 44 -49 44 -64 0 -63 0 -67 119 -3 68 -13 93 -31 75z"/>
<path d="M2810 1901 c0 -99 3 -120 16 -125 35 -14 42 -7 37 34 -6 39 -5 40 26
40 73 0 119 51 96 107 -20 46 -51 63 -117 63 l-58 0 0 -119z m118 32 c-2 -23
-8 -29 -35 -31 -31 -3 -33 -1 -33 27 0 29 3 31 36 31 33 0 35 -2 32 -27z"/>
<path d="M3044 1983 c3 -21 6 -78 6 -128 l0 -90 81 3 c67 3 80 6 75 19 -3 8
-6 19 -6 24 0 5 -22 9 -50 9 -47 0 -50 2 -50 25 0 23 4 25 40 25 36 0 40 3 40
25 0 23 -4 25 -40 25 -36 0 -40 3 -40 25 0 23 3 25 49 25 40 0 50 4 54 19 3
11 2 22 -1 25 -3 3 -41 6 -85 6 l-80 0 7 -37z"/>
<path d="M3280 1895 l0 -125 25 0 c23 0 25 4 25 40 0 30 4 40 16 40 16 0 74
-55 74 -71 0 -5 11 -9 25 -9 32 0 32 14 -1 53 l-25 30 25 24 c35 32 34 72 -3
112 -27 29 -34 31 -95 31 l-66 0 0 -125z m133 45 c6 -25 -11 -40 -45 -40 -24
0 -28 4 -28 29 0 20 6 31 18 33 28 6 50 -3 55 -22z"/>
<path d="M3802 1995 c-64 -54 -67 -131 -7 -184 44 -38 77 -47 116 -31 32 14
72 60 84 98 10 33 -12 88 -46 117 -42 34 -106 35 -147 0z m118 -54 c15 -29 12
-77 -6 -95 -23 -24 -60 -19 -83 10 -41 52 -18 104 44 104 24 0 38 -6 45 -19z"/>
<path d="M4066 1998 c-10 -38 -7 -218 4 -219 33 -5 35 -2 40 61 l5 65 48 -67
c31 -43 56 -68 68 -68 18 0 19 9 19 125 l0 125 -25 0 c-24 0 -25 -2 -25 -66
l0 -65 -48 63 c-52 69 -76 82 -86 46z"/>
<path d="M4386 1978 c-34 -60 -76 -163 -76 -188 0 -17 5 -21 28 -18 21 2 28 9
30 29 3 23 9 28 40 31 49 6 59 2 71 -34 8 -23 16 -29 33 -26 18 2 22 9 20 28
-4 38 -94 220 -108 220 -7 0 -24 -19 -38 -42z m54 -90 c0 -5 -9 -8 -20 -8 -20
0 -25 15 -13 45 5 15 8 14 19 -6 7 -13 13 -27 14 -31z"/>
<path d="M4597 1938 c-4 -46 -7 -102 -7 -125 l0 -43 85 0 85 0 0 30 c0 28 -1
29 -57 32 l-58 3 -3 93 c-2 81 -5 92 -21 92 -15 0 -19 -12 -24 -82z"/>
<path d="M4950 1895 l0 -125 46 0 c58 0 104 22 134 63 62 83 -11 187 -132 187
l-48 0 0 -125z m111 54 c51 -27 40 -99 -17 -113 -35 -9 -44 5 -44 72 0 46 2
52 21 52 11 0 29 -5 40 -11z"/>
<path d="M5230 1896 l0 -125 86 -3 c47 -2 88 0 90 4 3 4 2 18 -2 32 -5 23 -9
24 -52 20 -89 -9 -100 38 -12 50 41 5 51 10 48 24 -2 13 -15 18 -50 20 -30 2
-48 8 -52 18 -10 26 3 34 54 34 46 0 60 9 60 41 0 5 -38 9 -85 9 l-85 0 0
-124z"/>
<path d="M5740 1898 l0 -123 81 -3 80 -4 -3 29 c-3 27 -6 28 -61 31 -54 3 -58
5 -55 25 2 18 11 23 48 27 32 4 46 10 48 23 3 13 -4 17 -31 17 -45 0 -67 9
-67 26 0 14 23 22 80 26 28 2 36 8 38 26 3 21 1 22 -77 22 l-81 0 0 -122z"/>
<path d="M6238 1991 c-84 -53 -89 -95 -22 -170 31 -35 54 -51 70 -51 30 0 94
40 123 76 29 37 29 103 -1 131 -57 52 -104 56 -170 14z m109 -31 c16 0 32 -52
22 -76 -9 -27 -47 -54 -73 -54 -57 0 -77 82 -29 120 17 13 35 19 48 16 11 -3
25 -6 32 -6z"/>
<path d="M6497 2012 c-3 -4 -4 -61 -4 -127 2 -105 4 -120 20 -123 14 -3 17 4
17 36 l0 40 68 12 c125 21 171 59 135 109 -16 21 -36 29 -99 43 -89 18 -131
22 -137 10z m173 -52 c8 -14 8 -26 0 -40 -17 -32 -30 -23 -30 20 0 43 13 52
30 20z m-74 -10 c8 0 14 -7 14 -15 0 -8 -9 -15 -19 -15 -11 0 -26 -3 -35 -6
-11 -4 -16 0 -16 13 0 25 10 35 28 28 7 -3 20 -5 28 -5z"/>
<path d="M6820 1927 c0 -52 -3 -109 -6 -126 l-7 -32 84 3 c83 3 84 3 87 31 3
27 3 27 -57 27 -34 0 -61 3 -61 8 1 19 19 31 55 34 33 2 41 7 43 26 3 20 -1
22 -41 22 -43 0 -57 10 -57 40 0 5 28 10 63 12 54 3 62 5 62 23 0 18 -8 20
-82 23 l-83 3 0 -94z"/>
<path d="M7060 1900 l0 -120 25 0 c19 0 25 5 25 23 0 12 4 28 9 36 8 12 13 12
36 -3 14 -9 31 -28 37 -42 8 -17 19 -24 40 -24 33 0 35 13 8 47 -11 14 -20 33
-20 42 0 9 9 22 20 29 33 21 22 78 -24 114 -15 13 -40 18 -88 18 l-68 0 0
-120z m130 51 c16 -31 2 -51 -36 -51 -31 0 -34 3 -34 28 0 16 3 32 7 35 13 14
53 6 63 -12z"/>
<path d="M2426 1938 c-22 -31 -20 -64 4 -88 27 -27 55 -25 79 6 26 33 27 58 1
84 -27 27 -65 26 -84 -2z"/>
<path d="M7618 1950 c-21 -13 -25 -79 -6 -98 20 -20 85 -15 108 8 23 23 26 62
7 78 -20 17 -90 24 -109 12z"/>
<path d="M5056 1429 c-14 -17 -26 -41 -26 -54 0 -33 46 -85 76 -85 30 0 85 71
77 100 -7 26 -59 70 -83 70 -10 0 -30 -14 -44 -31z"/>
</g>
</svg>
